<svg xmlns="http://www.w3.org/2000/svg" viewBox="0 0 1378.62 1097.96"><defs><style>.cls-1{fill:#d0d6ec;}.cls-2{fill:#e3f3f3;}.cls-3{fill:#e9f4e9;}.cls-4{fill:#ffe9cd;}.cls-5{fill:#e5f0d4;}.cls-6{fill:#bde4e5;}.cls-7{fill:#231f20;}.cls-8{fill:#d9f0f5;}.cls-9{fill:#95a6d5;}.cls-10{fill:#e5e8f5;}.cls-11{fill:#5b6163;}.cls-12{fill:#747a8c;}.cls-13{fill:#fab54e;}.cls-14{fill:#b8d989;}.cls-15{fill:#f8a41d;}</style></defs><title>pusaa-logo</title><g id="Layer_2" data-name="Layer 2"><g id="Layer_1-2" data-name="Layer 1"><rect class="cls-1" x="196.14" y="221.93" width="1104.24" height="178.85" rx="89.43"/><rect class="cls-2" x="66.71" y="395.28" width="1104.24" height="178.85" rx="89.43"/><rect class="cls-3" x="257.22" y="568.63" width="1104.24" height="178.85" rx="89.43"/><rect class="cls-4" y="741.99" width="1104.24" height="178.85" rx="89.43"/><rect class="cls-5" x="196.14" y="915.34" width="1104.24" height="178.85" rx="89.43"/><path class="cls-6" d="M498.53,380.23h401a91.57,91.57,0,0,1,91.57,91.57V922.32a82.45,82.45,0,0,1-82.45,82.45H498.53a82.45,82.45,0,0,1-82.45-82.45V462.68A82.45,82.45,0,0,1,498.53,380.23Z"/><path class="cls-7" d="M908.61,1009.35H498.53a87.13,87.13,0,0,1-87-87V462.68a87.13,87.13,0,0,1,87-87h401a96.26,96.26,0,0,1,96.15,96.15V922.32A87.13,87.13,0,0,1,908.61,1009.35ZM498.53,384.81a78,78,0,0,0-77.87,77.87V922.32a78,78,0,0,0,77.87,77.87H908.61a78,78,0,0,0,77.87-77.87V471.8a87.08,87.08,0,0,0-87-87Z"/><path class="cls-8" d="M489.43,400.73H643.07a60.5,60.5,0,0,1,60.5,60.5V929.79a54.47,54.47,0,0,1-54.47,54.47H489.43A54.47,54.47,0,0,1,435,929.79V455.21A54.47,54.47,0,0,1,489.43,400.73Z"/><path class="cls-7" d="M569.34,722.19V700.26h-3.77V698h3.18l-1.82-2.52a7.37,7.37,0,0,1,1.05-2.89,9.66,9.66,0,0,1,2.08-2.38,10.08,10.08,0,0,1,2.74-1.61,8.16,8.16,0,0,1,3.05-.6,15.56,15.56,0,0,1,7.47,2,24.25,24.25,0,0,1,2.86,1.82q1.59,1.16,3.52,2.8l-1.52,1.66a24.77,24.77,0,0,0-6.23-4.53,13.7,13.7,0,0,0-6-1.49,6.51,6.51,0,0,0-2.26.43,8,8,0,0,0-2.09,1.18,7.19,7.19,0,0,0-1.62,1.73,3.4,3.4,0,0,0-.66,1.86l2,2.58h3.47v2.23h-3.22v21.93Z"/><path class="cls-7" d="M577.59,707.09a4.15,4.15,0,0,0,.71.55,1.94,1.94,0,0,0,1,.26,1.86,1.86,0,0,0,.82-.38,3.38,3.38,0,0,0,.66-.7,3.86,3.86,0,0,0,.43-.89,3.06,3.06,0,0,0,.15-.93,4.44,4.44,0,0,0-.44-2,4.55,4.55,0,0,0-1.2-1.48,5.4,5.4,0,0,0-1.74-.94,6.46,6.46,0,0,0-2.07-.33,5.45,5.45,0,0,0-1.78.3v-2.45c.31,0,.62-.06.92-.07h.9a13.25,13.25,0,0,1,2.38.22,6.8,6.8,0,0,1,2.08.76,5,5,0,0,1,1.58,1.44,5.17,5.17,0,0,1,.86,2.22,6.44,6.44,0,0,1,1.65-3.08,4,4,0,0,1,2.84-1,4.26,4.26,0,0,1,1.57.44,5.19,5.19,0,0,1,1.2.89,8.8,8.8,0,0,1,1,1.21c.33.46.69.94,1.1,1.47v-8.12h2.22V698H598v2.23h-3.48v21.93h-2.22V707a3.14,3.14,0,0,0-.21-1,8.14,8.14,0,0,0-.6-1.3,15.89,15.89,0,0,0-.87-1.41,8.85,8.85,0,0,0-1.05-1.28,6.39,6.39,0,0,0-1.16-.93,2.13,2.13,0,0,0-1.17-.36,2,2,0,0,0-1.75,1.05,6.32,6.32,0,0,0-.68,3.31,2.25,2.25,0,0,0,.22,1,2.55,2.55,0,0,0,.6.78,3.21,3.21,0,0,0,.85.53,2.52,2.52,0,0,0,1,.19,2.31,2.31,0,0,0,1.38-.48l1,1.86a4.36,4.36,0,0,1-1.31.66,4.5,4.5,0,0,1-3.51-.42,4.88,4.88,0,0,1-1.75-1.93,5,5,0,0,1-.77,1.17,5.18,5.18,0,0,1-1,.89,4,4,0,0,1-1.1.58,3.47,3.47,0,0,1-1.12.19,3.9,3.9,0,0,1-1.43-.27,4,4,0,0,1-1.39-1Z"/><path class="cls-7" d="M599.5,706.08a2.72,2.72,0,0,1-.07-.33c0-.12,0-.24,0-.36a2.89,2.89,0,0,1,.18-1,2.93,2.93,0,0,1,.51-.87,3.18,3.18,0,0,1,.78-.68,2.9,2.9,0,0,1,1-.39,1.85,1.85,0,0,0-.44-1.22,3.85,3.85,0,0,0-1.25-1h-4.58V698h32.17v2.23h-11v3.83c1.35.08,2.39.14,3.13.21s1.16.11,1.29.14a4.25,4.25,0,0,1,1.31.66,6,6,0,0,1,1.16,1.15,5.9,5.9,0,0,1,.84,1.49,4.52,4.52,0,0,1,.32,1.65,3.82,3.82,0,0,1-1,2.78,3.7,3.7,0,0,1-2.76,1,3.55,3.55,0,0,1-2-.61l1-2a1.36,1.36,0,0,0,.49.34,1.38,1.38,0,0,0,.57.11c.93,0,1.39-.55,1.39-1.64a2.71,2.71,0,0,0-1.09-2.24,4.79,4.79,0,0,0-3-.86l-.4,0-1.3.07v16h-2.2V717a11.91,11.91,0,0,0-1.3-2.16,10.39,10.39,0,0,0-1.6-1.69,7.4,7.4,0,0,0-1.75-1.08,4.48,4.48,0,0,0-1.76-.4,5.14,5.14,0,0,0-.64.26.92.92,0,0,0-.36.28,1.35,1.35,0,0,0-.23.45q-.1.28-.24.78a8.28,8.28,0,0,1-.85-.54c-.31-.21-.66-.44-1.06-.69a1.93,1.93,0,0,1,.45-1.15,6.49,6.49,0,0,1,1.24-1.2,5.42,5.42,0,0,1,.78-.2l1.08-.22v-.54a3.88,3.88,0,0,0-.44-1.87,4.36,4.36,0,0,0-1.18-1.41,5.36,5.36,0,0,0-1.73-.9,6.91,6.91,0,0,0-2.09-.31,1.06,1.06,0,0,0-.94.4,1.66,1.66,0,0,0-.27,1c0,.11,0,.22,0,.32a.82.82,0,0,0,.07.3Zm15.07.22L612.7,706a3.69,3.69,0,0,1-1.5-.72,6.34,6.34,0,0,1-1.33-1.4,8,8,0,0,1-1-1.77,4.92,4.92,0,0,1-.37-1.81H603a2.85,2.85,0,0,1,.67,1,3.73,3.73,0,0,1,.24,1,5.81,5.81,0,0,1,2.47.55,7,7,0,0,1,2.11,1.51,7.79,7.79,0,0,1,1.48,2.21,6.35,6.35,0,0,1,.57,2.65v.29a.86.86,0,0,1,0,.27,9.22,9.22,0,0,1,2.45,1.61,9,9,0,0,1,1.67,2.15Zm0-6H611a4.9,4.9,0,0,0,.22,1.5,3.49,3.49,0,0,0,.67,1.23,3.08,3.08,0,0,0,1.13.81,3.83,3.83,0,0,0,1.57.29Z"/><path class="cls-7" d="M623.77,698h3.1l.58.41c.18.14.36.3.55.48s.38.4.6.64l.74.9v-6h2.23V698h3.83v2.23h-3.83v21.93h-2.23V703.45a5.74,5.74,0,0,0-1.23-2,4.64,4.64,0,0,0-2-1.2h-2.39Z"/><path class="cls-7" d="M651.46,707.66a3.93,3.93,0,0,1,2.78,6.71,3.94,3.94,0,1,1-2.78-6.71Z"/><path class="cls-7" d="M671.4,707.09a3.79,3.79,0,0,0,.71.55,1.93,1.93,0,0,0,1,.26,1.84,1.84,0,0,0,.83-.38,3.09,3.09,0,0,0,.65-.7,3.52,3.52,0,0,0,.44-.89,3.06,3.06,0,0,0,.15-.93,4.44,4.44,0,0,0-.44-2,4.55,4.55,0,0,0-1.2-1.48,5.4,5.4,0,0,0-1.74-.94,6.5,6.5,0,0,0-2.07-.33,5.45,5.45,0,0,0-1.78.3v-2.45c.31,0,.62-.06.91-.07h.9a13.08,13.08,0,0,1,2.38.22,6.77,6.77,0,0,1,2.09.76,5,5,0,0,1,1.58,1.44,5.17,5.17,0,0,1,.86,2.22,6.36,6.36,0,0,1,1.65-3.08,4,4,0,0,1,2.84-1,4.26,4.26,0,0,1,1.57.44,5.19,5.19,0,0,1,1.2.89,8.8,8.8,0,0,1,1,1.21c.32.46.69.94,1.1,1.47v-8.12h2.22V698h3.48v2.23h-3.48v21.93h-2.22V707a3.14,3.14,0,0,0-.21-1,8.14,8.14,0,0,0-.6-1.3c-.26-.46-.54-.93-.87-1.41a8.85,8.85,0,0,0-1-1.28,6.75,6.75,0,0,0-1.16-.93,2.13,2.13,0,0,0-1.17-.36,2,2,0,0,0-1.75,1.05,6.32,6.32,0,0,0-.68,3.31,2.25,2.25,0,0,0,.22,1,2.55,2.55,0,0,0,.6.78,3.32,3.32,0,0,0,.84.53,2.57,2.57,0,0,0,1,.19,2.31,2.31,0,0,0,1.38-.48l1,1.86a4.36,4.36,0,0,1-1.31.66,4.5,4.5,0,0,1-3.51-.42,5,5,0,0,1-1.76-1.93,4.72,4.72,0,0,1-.76,1.17,5.5,5.5,0,0,1-1,.89,4,4,0,0,1-1.1.58,3.47,3.47,0,0,1-1.12.19,3.9,3.9,0,0,1-1.43-.27,4,4,0,0,1-1.39-1Z"/><path class="cls-7" d="M689,698h3.1l.58.41c.18.14.36.3.55.48s.39.4.6.64l.74.9v-6h2.23V698h3.83v2.23h-3.83v21.93h-2.23V703.45a5.74,5.74,0,0,0-1.23-2,4.67,4.67,0,0,0-1.94-1.2H689Z"/><path class="cls-7" d="M702.64,722.19V700.26h-3.77V698H702l-1.81-2.52a7.07,7.07,0,0,1,1-2.89,9.46,9.46,0,0,1,2.08-2.38,9.93,9.93,0,0,1,2.74-1.61,8.16,8.16,0,0,1,3-.6,15.56,15.56,0,0,1,7.47,2,24.25,24.25,0,0,1,2.86,1.82q1.59,1.16,3.51,2.8l-1.52,1.66a24.56,24.56,0,0,0-6.22-4.53,13.74,13.74,0,0,0-6-1.49,6.46,6.46,0,0,0-2.26.43,8,8,0,0,0-2.09,1.18,7.19,7.19,0,0,0-1.62,1.73,3.34,3.34,0,0,0-.67,1.86l2,2.58h3.47v2.23h-3.22v21.93Z"/><path class="cls-7" d="M706.49,698h24.83v2.23h-4.59a8.9,8.9,0,0,1,.79,1.94,6.5,6.5,0,0,1,.24,1.64,4,4,0,0,1-.32,1.56,5,5,0,0,1-.85,1.43,5,5,0,0,1-1.19,1.06,2.44,2.44,0,0,1-1.32.42c-.77,0-2-.69-3.58-2.06a7.85,7.85,0,0,0-2.23-1.39,5.36,5.36,0,0,0-1.83-.37,1.58,1.58,0,0,0-1.15.48,1.56,1.56,0,0,0-.49,1.16.69.69,0,0,0,.22.59,3.19,3.19,0,0,0,.64.37l-1.31,1.44a3,3,0,0,1-1.77-2.95,2.69,2.69,0,0,1,.33-1.32,3.52,3.52,0,0,1,.88-1,4,4,0,0,1,1.28-.69,4.93,4.93,0,0,1,1.55-.24,6.67,6.67,0,0,1,3.58,1,7.15,7.15,0,0,1,.64.52c.34.3.72.62,1.15,1s.86.64,1.29.92a2.12,2.12,0,0,0,1,.4,1.28,1.28,0,0,0,.49-.35,3,3,0,0,0,.41-.57,2.73,2.73,0,0,0,.28-.66,2.61,2.61,0,0,0,.09-.66,5.72,5.72,0,0,0-.39-2.24,2.63,2.63,0,0,0-1.17-1.34H706.49Zm22.92,15.8a7.19,7.19,0,0,1-.54,2.84,5.89,5.89,0,0,1-1.57,2.18,7.18,7.18,0,0,1-2.51,1.4,10.34,10.34,0,0,1-3.37.5,7.6,7.6,0,0,1-2.92-.58,12.62,12.62,0,0,1-2.72-1.57,14.54,14.54,0,0,1-2.41-2.31,21.7,21.7,0,0,1-2-2.83,22,22,0,0,1-1.54-3.07,18.68,18.68,0,0,1-.94-3.09l2.22-.34a18.36,18.36,0,0,0,4.32,8.2,12.34,12.34,0,0,0,3.1,2.47,6.7,6.7,0,0,0,3.23.9,6.37,6.37,0,0,0,2.09-.35,5.38,5.38,0,0,0,1.73-1,4.69,4.69,0,0,0,1.19-1.55,4.55,4.55,0,0,0,.44-2,4.55,4.55,0,0,0-1-2.79,4.14,4.14,0,0,0-1.11-.94,2.62,2.62,0,0,0-1.35-.37,3.79,3.79,0,0,0-1.07.15,3.42,3.42,0,0,0-.92.45,2.35,2.35,0,0,0-.66.71,1.75,1.75,0,0,0-.25.93,2,2,0,0,0,.2.84,5.55,5.55,0,0,0,.52.85l-1.79,1.34a4.92,4.92,0,0,1-1.15-3.08A3.68,3.68,0,0,1,719,710a4.55,4.55,0,0,1,1.14-1.41,5.53,5.53,0,0,1,1.73-.94,6.7,6.7,0,0,1,2.13-.34,4.31,4.31,0,0,1,2.12.54,5.55,5.55,0,0,1,1.71,1.42,6.65,6.65,0,0,1,1.14,2.08A7.48,7.48,0,0,1,729.41,713.83Z"/><path class="cls-7" d="M748.17,707.66a3.93,3.93,0,0,1,3.93,3.93,3.93,3.93,0,0,1-6.71,2.78,3.93,3.93,0,0,1,2.78-6.71Z"/><path class="cls-7" d="M783.14,711.58a6.61,6.61,0,0,0-.59-1.25,12.92,12.92,0,0,0-1-1.52,9,9,0,0,0-1.18-1.26,1.83,1.83,0,0,0-1.15-.53,1.63,1.63,0,0,0-1.16.54,8.53,8.53,0,0,0-1,1.34c-.33.53-.67,1.11-1,1.73a16.63,16.63,0,0,1-1.1,1.74,6.26,6.26,0,0,1-1.33,1.34,2.82,2.82,0,0,1-1.68.53,3.41,3.41,0,0,1-2.28-1.15,17.39,17.39,0,0,1-2.62-3.45l1.93-1,.48,1a8.23,8.23,0,0,0,.63,1.12,4.3,4.3,0,0,0,.8.93,1.41,1.41,0,0,0,.94.38,1.44,1.44,0,0,0,.92-.45,5.81,5.81,0,0,0,.92-1.08,8.55,8.55,0,0,0,.72-1.27,3.82,3.82,0,0,0,.33-1,13.42,13.42,0,0,0-.55-2.5A4.27,4.27,0,0,0,773,704a6.45,6.45,0,0,0-2.14-1.23,26.81,26.81,0,0,0-3.61-1v-1.45h-2.43V698h23.78v2.23h-3.21v21.93h-2.24Zm-12.48-11.32a20.06,20.06,0,0,1,2.17,1,7.61,7.61,0,0,1,1.55,1.12,6.4,6.4,0,0,1,1.17,1.52,12.22,12.22,0,0,1,.94,2.17,4.07,4.07,0,0,1,2.82-1.25c1.14,0,2.41,1,3.83,3v-7.51Z"/><path class="cls-7" d="M806.94,700.26v21.93h-2.23v-7.48a3.29,3.29,0,0,0-.27-1.13,9.56,9.56,0,0,0-.74-1.46,14.49,14.49,0,0,0-1.05-1.54,14.29,14.29,0,0,0-1.23-1.4,8.5,8.5,0,0,0-1.25-1,2.1,2.1,0,0,0-1.12-.39,5.24,5.24,0,0,0-3.67,1.23,4.53,4.53,0,0,0-1.34,3.53q0,3.45,3.66,4.17l-1,1.89h-.17a3.1,3.1,0,0,1-1.8-.59,6.62,6.62,0,0,1-1.5-1.49,7.82,7.82,0,0,1-1-1.93,5.61,5.61,0,0,1-.37-1.92q0-5.92,6-7.13a5.24,5.24,0,0,0-.69-1.29,3.52,3.52,0,0,0-1.13-1,10.21,10.21,0,0,0-1.91-.79c-.78-.25-1.78-.5-3-.78v-1.45h-2.85V698h21.89v2.23Zm-6.69,5.49a6.63,6.63,0,0,1,2.39,1.48,11.85,11.85,0,0,1,2.07,2.7v-9.67h-10.2a15,15,0,0,1,2.14.88,7,7,0,0,1,1.57,1.1,6.1,6.1,0,0,1,1.15,1.49A10.92,10.92,0,0,1,800.25,705.75Z"/><path class="cls-7" d="M798.83,724.21l6.28-4.62.67-2.14L807.2,721l-4.33,3.22,8.28,5.81-1.36,2Z"/><path class="cls-7" d="M813.09,722.19V700.26h-3.78V698h3.18l-1.81-2.52a7.07,7.07,0,0,1,1.05-2.89,9.46,9.46,0,0,1,2.08-2.38,9.93,9.93,0,0,1,2.74-1.61,8.16,8.16,0,0,1,3.05-.6,15.56,15.56,0,0,1,7.47,2,25.1,25.1,0,0,1,2.86,1.82c1.05.77,2.23,1.7,3.51,2.8l-1.52,1.66a24.73,24.73,0,0,0-6.22-4.53,13.74,13.74,0,0,0-6-1.49,6.46,6.46,0,0,0-2.26.43,7.83,7.83,0,0,0-2.09,1.18,7.19,7.19,0,0,0-1.62,1.73,3.34,3.34,0,0,0-.67,1.86l2,2.58h3.48v2.23H815.3v21.93Z"/><path class="cls-7" d="M823.89,714.27l7.84-5.13v-3a2,2,0,0,0-.84-1.15,3.3,3.3,0,0,0-1.07-.31,3.82,3.82,0,0,0-1.64.31,9.2,9.2,0,0,0-2.53,2,12.68,12.68,0,0,0-2.37,3.08,5.59,5.59,0,0,0-.72,2H820.3V700.26h-3V698h24.24v2.23h-19v7.31a17.58,17.58,0,0,1,3-3.15,8.3,8.3,0,0,1,3.62-1.72,4.43,4.43,0,0,1,3.34.86,4,4,0,0,1,1.26,1.68,4.66,4.66,0,0,1,.19,1.27v.93c0,.22,0,.5-.05.82.81-.37,1.5-.65,2.08-.85a4.92,4.92,0,0,1,1.43-.29,1.73,1.73,0,0,1,1.53.94,7.1,7.1,0,0,1,.57,3.39c-.13,2.45-.19,4-.19,4.76,0,.41,0,.82.06,1.25s.13,1,.26,1.78a8.6,8.6,0,0,0,1,2.66l-2,.78a12.7,12.7,0,0,1-1.47-6.15v-5.11a5.77,5.77,0,0,0-.18-2.11l-3.13,1.38v11.88h-2.19v-.91a13,13,0,0,0-3.46-3.55,12.66,12.66,0,0,0-4-2Zm7.84-2.69-5,3.13a13.33,13.33,0,0,1,1.43.7,20,20,0,0,1,3.56,2.9Z"/><path class="cls-9" d="M638.71,664H501.14A40.12,40.12,0,0,1,461,623.9v-145a27.49,27.49,0,0,1,24.67-27.34l153-15.78a40.12,40.12,0,0,1,40.12,40.12v148A40.12,40.12,0,0,1,638.71,664Z"/><path class="cls-7" d="M638.71,668.6H501.14a44.75,44.75,0,0,1-44.7-44.7v-145A32,32,0,0,1,485.22,447l153.26-15.81h.23a44.75,44.75,0,0,1,44.7,44.7v148A44.75,44.75,0,0,1,638.71,668.6Zm.23-228.2L486.16,456.15a22.84,22.84,0,0,0-20.55,22.78v145a35.57,35.57,0,0,0,35.53,35.54H638.71a35.58,35.58,0,0,0,35.54-35.54v-148A35.57,35.57,0,0,0,638.94,440.4Z"/><path class="cls-10" d="M560.2,463.14a11.92,11.92,0,0,1,10,19.72l-70.56,80.5a11.91,11.91,0,0,1-20.33-8.42V481.41A11.9,11.9,0,0,1,490,469.57Z"/><path class="cls-9" d="M906,664H768.43a40.12,40.12,0,0,1-40.12-40.12v-148a40.12,40.12,0,0,1,40.12-40.12l153,15.78a27.49,27.49,0,0,1,24.66,27.34v145A40.12,40.12,0,0,1,906,664Z"/><path class="cls-7" d="M906,668.6H768.43a44.75,44.75,0,0,1-44.7-44.7v-148a44.75,44.75,0,0,1,44.7-44.7l.47,0,153,15.78a32,32,0,0,1,28.77,31.89v145A44.75,44.75,0,0,1,906,668.6ZM768.2,440.4a35.57,35.57,0,0,0-35.31,35.53v148a35.58,35.58,0,0,0,35.54,35.54H906a35.57,35.57,0,0,0,35.53-35.54v-145A22.84,22.84,0,0,0,921,456.15Z"/><rect class="cls-7" x="331.09" y="554.13" width="48.56" height="103.07" rx="20.57"/><path class="cls-7" d="M359.08,661.78h-7.42a25.17,25.17,0,0,1-25.15-25.14V574.7a25.18,25.18,0,0,1,25.15-25.15h7.42a25.18,25.18,0,0,1,25.15,25.15v61.94A25.17,25.17,0,0,1,359.08,661.78Zm-7.42-103.07a16,16,0,0,0-16,16v61.94a16,16,0,0,0,16,16h7.42a16,16,0,0,0,16-16V574.7a16,16,0,0,0-16-16Z"/><path class="cls-7" d="M416.08,700.19H378.65a32.1,32.1,0,0,1-32.07-32.06v-7.2h9.17v7.2a22.92,22.92,0,0,0,22.9,22.9h37.43Z"/><rect class="cls-7" x="1027.49" y="554.13" width="48.56" height="103.07" rx="20.57" transform="translate(2103.53 1211.34) rotate(-180)"/><path class="cls-7" d="M1055.48,661.78h-7.43a25.18,25.18,0,0,1-25.15-25.14V574.7a25.18,25.18,0,0,1,25.15-25.15h7.43a25.18,25.18,0,0,1,25.15,25.15v61.94A25.17,25.17,0,0,1,1055.48,661.78Zm-7.43-103.07a16,16,0,0,0-16,16v61.94a16,16,0,0,0,16,16h7.43a16,16,0,0,0,16-16V574.7a16,16,0,0,0-16-16Z"/><path class="cls-7" d="M1028.49,700.19H991.06V691h37.43a22.92,22.92,0,0,0,22.9-22.9v-7.2h9.16v7.2A32.09,32.09,0,0,1,1028.49,700.19Z"/><path class="cls-11" d="M1036.65,636.64V574.7a20.55,20.55,0,0,1,19.7-20.54l-.87,0h-7.43a20.56,20.56,0,0,0-20.56,20.57v61.94a20.55,20.55,0,0,0,20.56,20.56h7.43l.87,0A20.56,20.56,0,0,1,1036.65,636.64Z"/><path class="cls-11" d="M340.25,636.64V574.7A20.56,20.56,0,0,1,360,554.16c-.29,0-.57,0-.87,0h-7.42a20.57,20.57,0,0,0-20.57,20.57v61.94a20.56,20.56,0,0,0,20.57,20.56h7.42l.87,0A20.57,20.57,0,0,1,340.25,636.64Z"/><path class="cls-7" d="M519,1004.77h71.29a0,0,0,0,1,0,0v56.55a27.48,27.48,0,0,1-27.48,27.48H546.52A27.48,27.48,0,0,1,519,1061.32v-56.55A0,0,0,0,1,519,1004.77Z"/><path class="cls-7" d="M562.84,1093.38H546.52a32.1,32.1,0,0,1-32.07-32.06v-61.13H594.9v61.13A32.09,32.09,0,0,1,562.84,1093.38Zm-39.22-84v52a22.92,22.92,0,0,0,22.9,22.9h16.32a22.92,22.92,0,0,0,22.9-22.9v-52Z"/><path class="cls-7" d="M816.81,1004.77H888.1a0,0,0,0,1,0,0v56.55a27.48,27.48,0,0,1-27.48,27.48H844.3a27.48,27.48,0,0,1-27.48-27.48v-56.55A0,0,0,0,1,816.81,1004.77Z"/><path class="cls-7" d="M860.62,1093.38H844.3a32.1,32.1,0,0,1-32.07-32.06v-61.13h80.45v61.13A32.09,32.09,0,0,1,860.62,1093.38Zm-39.22-84v52a22.92,22.92,0,0,0,22.9,22.9h16.32a22.92,22.92,0,0,0,22.9-22.9v-52Z"/><path class="cls-7" d="M953.05,836.23h-499a4.58,4.58,0,1,1,0-9.16h499a4.58,4.58,0,1,1,0,9.16Z"/><path class="cls-7" d="M953.05,811.8h-499a4.58,4.58,0,1,1,0-9.16h499a4.58,4.58,0,0,1,0,9.16Z"/><rect class="cls-9" x="595.1" y="859.09" width="216.95" height="118.76" rx="19.79"/><path class="cls-7" d="M792.25,982.43H614.89a24.41,24.41,0,0,1-24.38-24.38V878.88a24.4,24.4,0,0,1,24.38-24.37H792.25a24.39,24.39,0,0,1,24.37,24.37v79.17A24.4,24.4,0,0,1,792.25,982.43ZM614.89,863.67a15.22,15.22,0,0,0-15.21,15.21v79.17a15.22,15.22,0,0,0,15.21,15.21H792.25a15.22,15.22,0,0,0,15.21-15.21V878.88a15.22,15.22,0,0,0-15.21-15.21Z"/><path class="cls-7" d="M791.17,910.83H616a4.58,4.58,0,0,1,0-9.16h175.2a4.58,4.58,0,1,1,0,9.16Z"/><path class="cls-7" d="M791.17,886.4H616a4.59,4.59,0,0,1,0-9.17h175.2a4.59,4.59,0,0,1,0,9.17Z"/><path class="cls-7" d="M791.17,935.27H616a4.59,4.59,0,0,1,0-9.17h175.2a4.59,4.59,0,0,1,0,9.17Z"/><path class="cls-7" d="M791.17,959.7H616a4.58,4.58,0,0,1,0-9.16h175.2a4.58,4.58,0,0,1,0,9.16Z"/><rect class="cls-10" x="454.09" y="748.01" width="498.97" height="34.77" rx="17.39"/><path class="cls-7" d="M935.66,787.36H471.47a22,22,0,1,1,0-43.93H935.66a22,22,0,1,1,0,43.93ZM471.47,752.59a12.81,12.81,0,0,0,0,25.61H935.66a12.81,12.81,0,1,0,0-25.61Z"/><polygon class="cls-12" points="855.4 360.4 551.74 360.4 569.59 240.28 837.54 240.28 855.4 360.4"/><path class="cls-7" d="M860.71,365H546.42L565.64,235.7H841.5Zm-303.66-9.16h293l-16.49-111H573.54Z"/><path class="cls-9" d="M416.08,297.53h0A18.88,18.88,0,0,1,435,316.41v44a0,0,0,0,1,0,0H397.2a0,0,0,0,1,0,0v-44a18.88,18.88,0,0,1,18.88-18.88Z"/><path class="cls-7" d="M439.54,365H392.62V316.41a23.46,23.46,0,0,1,46.92,0Zm-37.76-9.16h28.59V316.41a14.3,14.3,0,1,0-28.59,0Z"/><polygon class="cls-7" points="420.66 297.53 411.5 297.53 411.5 235.69 991.06 235.69 991.06 244.86 420.66 244.86 420.66 297.53"/><path class="cls-7" d="M855.4,360.4H646.11a34,34,0,0,1-33.61-39l4.44-29.92a60.07,60.07,0,0,1,59.42-51.23H837.55Z"/><path class="cls-7" d="M860.71,365H646.11A38.55,38.55,0,0,1,608,320.75l4.44-29.92a64.64,64.64,0,0,1,64-55.13H841.5ZM676.36,244.86a55.81,55.81,0,0,0-54.88,47.32L617,322.1a29.39,29.39,0,0,0,29.08,33.72h204l-16.49-111Z"/><circle class="cls-13" cx="483.23" cy="939.3" r="22.21"/><path class="cls-7" d="M483.23,966.09A26.79,26.79,0,1,1,510,939.3,26.82,26.82,0,0,1,483.23,966.09Zm0-44.42a17.63,17.63,0,1,0,17.63,17.63A17.64,17.64,0,0,0,483.23,921.67Z"/><circle class="cls-9" cx="540.75" cy="946.1" r="15.41"/><path class="cls-7" d="M540.75,966.09a20,20,0,1,1,20-20A20,20,0,0,1,540.75,966.09Zm0-30.82a10.83,10.83,0,1,0,10.83,10.83A10.83,10.83,0,0,0,540.75,935.27Z"/><circle class="cls-13" cx="923.9" cy="939.3" r="22.21"/><path class="cls-7" d="M923.9,966.09a26.79,26.79,0,1,1,26.79-26.79A26.82,26.82,0,0,1,923.9,966.09Zm0-44.42a17.63,17.63,0,1,0,17.63,17.63A17.64,17.64,0,0,0,923.9,921.67Z"/><circle class="cls-9" cx="866.39" cy="946.1" r="15.41"/><path class="cls-7" d="M866.39,966.09a20,20,0,1,1,20-20A20,20,0,0,1,866.39,966.09Zm0-30.82a10.83,10.83,0,1,0,10.83,10.83A10.84,10.84,0,0,0,866.39,935.27Z"/><path class="cls-7" d="M906,536.88a4.59,4.59,0,0,1-4.59-4.58V451.94a4.59,4.59,0,0,1,9.17,0V532.3A4.59,4.59,0,0,1,906,536.88Z"/><path class="cls-7" d="M883.74,496.7a4.59,4.59,0,0,1-4.59-4.58V451.94a4.59,4.59,0,0,1,9.17,0v40.18A4.58,4.58,0,0,1,883.74,496.7Z"/><rect class="cls-14" x="655.89" y="307.98" width="95.36" height="95.36" rx="22.64"/><path class="cls-7" d="M728.6,407.92H678.53a27.25,27.25,0,0,1-27.22-27.23V330.62a27.25,27.25,0,0,1,27.22-27.22H728.6a27.25,27.25,0,0,1,27.23,27.22v50.07A27.25,27.25,0,0,1,728.6,407.92Zm-50.07-95.36a18.08,18.08,0,0,0-18.06,18.06v50.07a18.09,18.09,0,0,0,18.06,18.07H728.6a18.1,18.1,0,0,0,18.07-18.07V330.62a18.09,18.09,0,0,0-18.07-18.06Z"/><path class="cls-13" d="M655.89,330.62a22.53,22.53,0,0,1,.72-5.67c-58.12,7.17-108.31,27.35-141.72,55.27h141Z"/><path class="cls-7" d="M655.89,384.8h-141a4.58,4.58,0,0,1-2.93-8.1c34.88-29.14,86.05-49.14,144.09-56.3a4.62,4.62,0,0,1,4,1.53,4.57,4.57,0,0,1,1,4.16,18.14,18.14,0,0,0-.57,4.53v49.6A4.58,4.58,0,0,1,655.89,384.8ZM528.3,375.64h123V330.27C603,337,560,352.91,528.3,375.64Z"/><path class="cls-13" d="M892.24,380.22c-33.4-27.92-83.6-48.1-141.71-55.27a22.53,22.53,0,0,1,.72,5.67v49.6Z"/><path class="cls-7" d="M892.24,384.8h-141a4.58,4.58,0,0,1-4.58-4.58v-49.6a18.07,18.07,0,0,0-.58-4.52,4.6,4.6,0,0,1,5-5.7c58,7.16,109.21,27.16,144.09,56.3a4.58,4.58,0,0,1-2.94,8.1Zm-136.41-9.16h123c-31.71-22.73-74.69-38.62-123-45.37v45.37Z"/><path class="cls-11" d="M826,1004.77v56.55a27.48,27.48,0,0,0,27.48,27.48H844.3a27.48,27.48,0,0,1-27.49-27.48v-56.55Z"/><path class="cls-11" d="M528.2,1004.77v56.55a27.48,27.48,0,0,0,27.48,27.48h-9.16A27.48,27.48,0,0,1,519,1061.32v-56.55Z"/><circle class="cls-15" cx="703.57" cy="355.66" r="24.56"/><path class="cls-7" d="M703.57,384.8a29.14,29.14,0,1,1,29.14-29.14A29.17,29.17,0,0,1,703.57,384.8Zm0-49.12a20,20,0,1,0,20,20A20,20,0,0,0,703.57,335.68Z"/><path class="cls-7" d="M947.46,1098H241.65a9.16,9.16,0,1,1,0-18.32H947.46a9.16,9.16,0,0,1,0,18.32Z"/><path class="cls-7" d="M1165.49,1098H992.66a9.16,9.16,0,1,1,0-18.32h172.83a9.16,9.16,0,1,1,0,18.32Z"/><path class="cls-7" d="M180.38,1022.07q5.7-3.86,12.1-7.86l10.23-6.6-7.33-10.85L137,1036.24l-2.61-3.84.68-.39-5.7-10.14L191,987.19l-6.42-11.4L123,1010.46l-5.18-9.21-.78.43-24.62-54q16.75,16.61,22.79,22.16,16.11,14.85,25.25,19.88l10.9-9q-5.06-12.37-3.67-32.69t8.55-31.14l-4.77-10.47L87,935.76l-1.53-3.37.84-.3-3.33-9.2L149.22,899l-4.53-12.56L78.4,910.33l-3.27-9.08-1.09.39L56.45,834.45l21.62-5.66q-4.25,5.75-2.9,10.85,2.17,8.29,14.28,13.31-8.24,9.79-5.69,19.5Q86.6,883.29,95.14,888t19.42,1.87q10.62-2.77,16-11.35t2.56-19.19c-.22-.85-.78-2.44-1.66-4.76l-14.18-.93a37.24,37.24,0,0,1,1.72,5q3.72,14.21-6.9,17-12.78,3.35-15.37-6.5-1.17-4.49,3.12-8.47a21.88,21.88,0,0,1,8.28-4.9L104.48,842a20.22,20.22,0,0,1-8.83-.42q-5.46-1.44-6.5-5.4Q86.44,825.78,108.67,820c2.8-.73,5.49-1.35,8.07-1.84q7.76-1.49,8.14-1.59l-3.22-12.27L53.24,822.17,51.62,816l-5-42.74,1.45-.17,14,18.92q8.54,11.5,15.13,18.94l13.23-5.28Q88.36,783,116.86,763.69L115.49,752,59,758.6q-.08-18.89,9.64-20,7.89-.93,8.83,7.22.32,2.63.79,6.69L90.76,751a38.74,38.74,0,0,0,0-4.14q-1.12-9.57-7.27-15.52a18.68,18.68,0,0,0-15.93-5.33q-10.9,1.28-16.89,12.63a39,39,0,0,0-4.56,21.43l-1,.12-4.35-37.29-11.82,1.38,10.74,92-.25.06.47,1.83v0h0l24.26,92.66,1.63-.42,1.42,3.92q-11.79,3.55-20.77-2.63-8.2-5.61-12.51-17.55-5.3-14.67.91-42.64l-11.42-3.61q-3.81,16.3-4.45,25.82a60.26,60.26,0,0,0,3.12,24.63Q28.42,916,41,923.82q13.53,8.64,30.78,3.11l1.6,4.42-1.22.56,36.09,79.16,1.14-.53,13.22,23.5-1,.66,12.88,19,12.38-8.37q-3.12,8.83-2.78,15a28.58,28.58,0,0,0,5.24,14.37q11.44,16.9,30.09,18.53l6-8.55q-2.49-4.86-2.32-7.2c.21-2.06,1.7-4,4.47-5.9q3.49-2.37,11.12-3.37l4.44-10.17Q180,1046,164,1036.18,166.46,1031.48,180.38,1022.07ZM138.7,926.55a133.3,133.3,0,0,0-4,41Q115.33,951.15,106,941.47ZM96.52,767.4q-13.9,15.44-17,21.69-14.13-12.69-17.11-17.7Zm85,294.29a16.19,16.19,0,0,0-4,1.89q-6.25,4.23-6,12.55-8.28-4-11.91-9.34a16.09,16.09,0,0,1-2.61-8.93,18.35,18.35,0,0,1,2.12-9.26Z"/><path class="cls-7" d="M83.5,681.55c-.25,2.34-.4,4.08-.46,5.22l15.84.92q1.5-8.79,10.75-22a157.17,157.17,0,0,1,16.19-19.59l-6.78-10a141,141,0,0,0-24.11,29.65q-1-12.1-5.9-19.89-6-9.69-17-10.23-10.17-.51-18.63,7.22t-9,17.89a32.62,32.62,0,0,0,3,16.3q4.2,8.67,12.65,9.09a16.32,16.32,0,0,0,12.21-4.69,16,16,0,0,0,5.68-11.63l-10.49-7.53q-.93,10.8-6.34,10.54-2.64-.14-3.93-3.66a13.92,13.92,0,0,1-.9-5.77q.23-4.63,5.12-9.79t9.5-4.92q7.67.38,11,11a47.43,47.43,0,0,1,2,16.57C83.9,677.47,83.75,679.22,83.5,681.55Z"/><path class="cls-7" d="M140.25,436.18q-12.93,2.32-29.39.11L115,447.91a73.92,73.92,0,0,0,34.28-1.67q18.84-5.6,26-20.07,6.88-14,.55-27.73-5.81-12.74-20.1-19.93l-14.5,4.6q4.81,13,.39,21.94a11.87,11.87,0,0,1-6.36,6,10.05,10.05,0,0,1-8.56-.41,8.54,8.54,0,0,1-4.51-4.84,8,8,0,0,1,.45-6.49c1.08-2.19,2.37-2.91,3.89-2.16q1.92.94,2.44,6.51l11-5.65q-2.41-8.85-7.4-11.31a13.06,13.06,0,0,0-11.94-.29q-5.19,2.46-8.35,8.86-4.22,8.53-1.54,16t11.21,11.65a20.59,20.59,0,0,0,17.63.58,24.79,24.79,0,0,0,13.23-12.35,31.21,31.21,0,0,0,2.87-16.27,23.2,23.2,0,0,1,9.23,11.77,18.34,18.34,0,0,1-.92,14.73Q158.2,433,140.25,436.18Z"/><path class="cls-7" d="M283.33,205.48q-8.56-1.38-15.39,5.06a38.07,38.07,0,0,0-6.92,9.33A34.36,34.36,0,0,0,257,230.51l11.74,4.74q3.6-10.83,5.52-12.65,7-6.61,14.1.89,6.62,7,2,20.82-4.21,12.51-12.18,19.47l-2.4,2.08L236,223.71l42.82-40.34-8.16-8.67-7.8,7.35a28.28,28.28,0,0,0-12-6.83l-2.09-11.56q-16.2,4.23-24.92,8.1A60.44,60.44,0,0,0,203.54,186q-12.57,13.8-13.68,28.55-1.34,16,11.6,28.68l-4.26,4.67-.75-.59-12.79,16.32-2.86-34.54-9,9.85v.22A159.3,159.3,0,0,0,151,249.76a60.46,60.46,0,0,0-18,17.14q-10.38,15.53-9.26,30.28,1.08,16,15.77,26.61L137.44,327l-.14-.08-2,3.22-1.19,1.79.07.05-13.55,22.18-1.28-.64-41.1,83.37.35.17L51.7,516.31l1.23.42L52,520.39q-11.77-3.64-15.76-13.78-3.66-9.24-.57-21.55,3.81-15.13,24.6-34.85l-7.46-9.37q-12.27,11.39-18.13,18.92a60.44,60.44,0,0,0-11.17,22.17Q19,500,25,513.56q6.39,14.72,23.78,19.78l-1.2,4.78L46,537.88l-2.51,15.53a26.06,26.06,0,0,0-21.95,5.68A31.58,31.58,0,0,0,9.72,579.28q-2.9,17.88,5.15,38.47l10.47-2.6q-5.25-25.49-4.34-31.1a20.77,20.77,0,0,1,6.76-12.83q5.46-4.76,13.53-4.11L31.16,629.62l1,.16-.29,5.75q-11,0-18.78,5.16A19.54,19.54,0,0,0,3.64,656.9q-.71,14.4,9.44,31.31l10.11-3.73-5-12.16a31.13,31.13,0,0,1-2.41-12.83,10.7,10.7,0,0,1,4.39-8.39,14.24,14.24,0,0,1,9.54-2.83,9.45,9.45,0,0,1,1.44.2l-2.08,42.12,11.88.59,3.16-63.78-.57,0,5.12-31.6,32,5.18,10.7-9L85,566a14.75,14.75,0,0,1,4.54.07,21.63,21.63,0,0,1,14.35,9,20.84,20.84,0,0,1,4.2,16.21q-1.81,11.23-17.16,20a95.67,95.67,0,0,1-29.43,10.5l7.68,10.49q31.38-6,45.44-25.86,4.86-6.84,5.53-11,2.73-16.84-5.69-28.51T89.19,552.5a54.64,54.64,0,0,0-8.46-.7l-9.85,7.92L76.11,587l-25.32-4.1,6.06-37.38,1,.26,2.39-9.48,68.34,17.21,3.26-13L63.54,523.3l2.36-9.36-.76-.19,18.55-54.57,35.92,12.21Q96.36,479,90.13,497.34a21.72,21.72,0,0,0,1.16,17.54,22.8,22.8,0,0,0,13.53,11.53,22.55,22.55,0,0,0,16.69-.61A19,19,0,0,0,133,513.91a30.84,30.84,0,0,0,1.72-14.08l-13-.37a21.85,21.85,0,0,1-.5,7.65A10.13,10.13,0,0,1,116.3,513a9.12,9.12,0,0,1-7.51.52,8.55,8.55,0,0,1-5.34-5.25,11,11,0,0,1-.26-7.86q3.15-9.29,17.18-16.64t23.28-4.21l7,2.39,4.21-12.4-67-22.76,2.55-7.51-.06,0,37.74-76.57.93.56,6.07-9.93,60.37,36.86L202.32,379,142,342.15l3.42-5.6,4.11-6.15,58.59,39.14,7.42-11.1-58.6-39.14,5.36-8-.51-.34,1.26-1.62q20.69-8.82,33.8,1.45,3.85,3,7,10.54,3.56,8.34.87,11.77t-12.57,5.1l11.35,8.89q9.22-3.21,12.17-7,5.81-7.39,2.54-18-3.74-7.64-7.41-15.4Q206,295,208.67,291.53a5.62,5.62,0,0,1,4.8-2.13,8.67,8.67,0,0,1,5.37,1.85l29.22,22.9,8.08-10.31-55.06-43.13,2.09-2.67.5.45,6.59-7.23,52.07,47.48,9-9.87L219.25,241.4l6.51-7.14-.47-.43,1-1,48.51,51.48Q289.73,270.3,295,262.78a53.3,53.3,0,0,0,9.43-24.5q1.86-15.37-6.75-24.52Q291.06,206.74,283.33,205.48ZM147.2,310.19l1,.76L147,312.69q-9.85-7.38-10.22-18.27-.34-9.94,6.7-20.49,7.53-11.28,28.31-21.52l0,25,6.77-7.25Zm58.09-29.56a10.28,10.28,0,0,0-7.54,4.05q-3.12,4-2.58,10.8A35.34,35.34,0,0,0,175.8,293L193,271Zm7.28-51.16.74.78-2.85,3.13q-8.64-8.77-7.36-19.6,1.13-9.87,9.68-19.25l.08-.09a83,83,0,0,0-8,20.12l10.06,4.32q6.67-20.1,13.7-26.72a20.5,20.5,0,0,1,12.05-5.72q7.51-.9,12.31,4.2l.37.39Z"/><path class="cls-7" d="M710.91,17.77l-75.67,3.39,0-.14-1.2.2-2.88.13v.33l-6.5,1A27.67,27.67,0,0,0,612,4.74,31.05,31.05,0,0,0,589.87.47Q574.72,2.9,558.39,17.05l5.9,9.22q16.82-12.87,26.34-14.41a20.48,20.48,0,0,1,13.18,2q6.72,3.48,7.83,10.39l.08.52-37.34,6-.1-.43L569,31.68l-12.59,2,.16,1L528.7,41.55l-.5-1.44-90,31.09.5,1.46-28.48,13-1.53-2.5L399.13,89a27.56,27.56,0,0,0-18.61-11.73,31.25,31.25,0,0,0-22.12,4.35q-13.09,8-22.76,27.18l8.84,6.38q10.8-18.35,19-23.37,14.12-8.59,23.41,4.62l-89.41,54.49,5.79,9,8.36-5.09q22.57-1.06,31.24,13.16c1.66,2.71,2.61,6.82,2.88,12.34.19,6.07-.92,9.85-3.33,11.31s-7,1.64-13.55.37l7.57,12.42c6.36.14,10.94-.63,13.71-2.32q7.89-4.82,8.55-15.89.12-2.08-1.4-19.28-.91-10.12,3.25-12.66a5.6,5.6,0,0,1,5.19-.22,8.66,8.66,0,0,1,4.39,3.52l16.66,27.34a17.47,17.47,0,0,0-8,7.54,11.14,11.14,0,0,0-.36,10.76q3.73,7.73,10.21,10.47t14.09-.95q8.21-4,11.51-17.18a32,32,0,0,1,16.82,12l6.32-9.09q-6.06-11.61-23.05-15.13l.78-9.78c.59-.56,1.14-1.11,1.66-1.67a49.15,49.15,0,0,0,12-21.14q3.75-13.48-2.4-23.58-5-8.28-12.36-11.14-8.1-3.14-16.12,1.74a37.79,37.79,0,0,0-8.69,7.73,34.08,34.08,0,0,0-6.13,9.62l10.7,7.15q5.63-10.08,7.77-11.39,8.35-5.1,13.76,3.78,5.13,8.43-3,21.32a50.76,50.76,0,0,1-16.77,16.93,22.09,22.09,0,0,1-2.62,1.29l-30.41-49.9,48-29.24,1.34,2.93,23-10.46q-4,13.59-4.65,22-1,12.21,3.18,21.36,7.67,16.84,23.87,23.42,7.46,3,22.51-3.85a21.7,21.7,0,0,0,7.74-6.28l-5.91-13q-3.9,7-6.3,8.09-11.15,5.07-18.94.34Q450,135.67,444.66,124q-4.67-10.21-.79-24.62,3.38-13.26,11.4-21.47L481.1,69l10.58,30.61,13.18,4.54,18.26-16.8a21.34,21.34,0,0,1,2.39,4.91,21.11,21.11,0,0,1-1,16.27,19.69,19.69,0,0,1-11.76,10.92q-22.62,7.81-48.64-24.6L456.49,105q12.51,15.54,26.26,23,17.42,9.51,33.54,3.94,15.86-5.49,21.25-17.84t-.12-28.27a17.18,17.18,0,0,0,5.17,4.93,16.38,16.38,0,0,0,13.09,2q2.7-.66,7.85-5.19l-7.46-9.88-3,2.91a8.75,8.75,0,0,1-4.28-.26c-.83-.4-1.47-1.55-1.94-3.45-.95-3.9,1.06-6.46,6.06-7.69q7.18-1.76,18,6.72l6.13,38.12q20.23-3.25,28.82-6.51a53.37,53.37,0,0,0,21.56-15q10.17-11.68,8.18-24.08-1.54-9.53-7.22-14.91-6.31-6-15.58-4.46a37.93,37.93,0,0,0-11,3.84,34.34,34.34,0,0,0-9.33,6.52L599.58,70q9.06-6.95,11.67-7.37,9.53-1.53,11.17,8.65,1.53,9.52-10,18.35-10.5,8-21,9.27l-3.15.38-3-18.81,1.27-.41-3.87-15.8L579,42.11l56.21-9,6.87-.3Q662.27,42.72,663,59.35q.21,4.89-3.43,12.2-4,8.11-8.36,8.32t-12.06-6.21l.65,14.39Q648.27,93,653,92.76q9.4-.44,15.35-9.83,3.36-7.82,6.86-15.66Q681,56,685.34,55.84a5.57,5.57,0,0,1,4.74,2.24,8.73,8.73,0,0,1,2.1,5.28l1.66,37.09,13.08-.59L703.78,30l7.66-.35ZM398.24,202q-4.71,2.28-6.67-1.76-1.85-3.81,2-5.69c2-1,4.9-1,8.79-.15Q402.72,199.81,398.24,202ZM351.4,146.07q-4.29,2.61-6.17,9.18A36.18,36.18,0,0,0,328,146l25.63-15.62L362,144.11Q355.47,143.6,351.4,146.07ZM560,58.67a19.2,19.2,0,0,0-10.52,0q-7.86,1.92-11.95,7.56a15.46,15.46,0,0,0-2.75,13.19c-.38-.8-.79-1.64-1.24-2.52l-11.72-5.18L501.85,88.94,493.47,64.7,525,53.8l.2.85,39.16-9.6,4.53,18.49Q562.92,59.58,560,58.67ZM683.42,43.09q-5,.22-9.87,5.07a35.34,35.34,0,0,0-10.71-16.33l27.87-1.25.7,15.59A10.26,10.26,0,0,0,683.42,43.09Z"/><path class="cls-7" d="M1223.59,281.16l1.93,2.76,1.21,1.73,1,1.41q9.06,13.19.81,18.95-9.75,6.81-14,.74-1.89-2.72.5-12.45l-12.57,8.79q-3.18,7.21,1.06,13.29,5.07,7.26,15.73,6.59-3.68,10-.11,15.07a15.71,15.71,0,0,0,11.07,6.62l12.25-8.55q-8.54-2.76-9.9-4.7-3.93-5.64,4.75-11.7A9.2,9.2,0,0,1,1250,322q2.73,3.9.59,9.42a16.16,16.16,0,0,1-6,7.89l-44.93,31.39,7.49,10.73,58.09-40.58,4.21,6,28.84,54.24-33.5,17.81q10.37-22.17,1.29-39.25a21.75,21.75,0,0,0-13.58-11.17A23.75,23.75,0,0,0,1223.87,383a19,19,0,0,0,.82,16.48,30.76,30.76,0,0,0,9.09,10.89l9.17-9.22q-4-3.39-5.22-5.6a10,10,0,0,1-1-7.58,9.07,9.07,0,0,1,4.76-5.83,8.55,8.55,0,0,1,7.48-.29,11,11,0,0,1,5.91,5.19q4.61,8.67.36,23.92t-12.89,19.84l-6.53,3.47,6.14,11.56,62.45-33.2,3.73,7,10.51-5.59L1280,341.32l.08-.05-.45-.65-1.05-2-.24.13-11.13-15.93-5.42,3.79q1.93-8.78-2-14.41-5.52-7.92-16.93-6.24,4.44-11.64-.25-18.36l-8.48-12.14.19-.17-1.39-1.55-.62-.89-.11.08-55-61.48-.88.79-23.5-22.12.53-.67L1091,139.65l-.77,1-1.74-1.19q7.47-9.78,18.36-10,9.93-.26,20.43,6.88,12.88,8.79,24.25,35.08l11.37-3.77q-6.46-15.45-11.52-23.53a60.55,60.55,0,0,0-17-18.12q-15.42-10.51-30.19-9.53-16,.93-26.76,15.52l-3.16-2.15.08-.13-3.22-2-1.78-1.21,0,.07-22.9-14.27.41-.81L989.31,81.63l0-.08-1-.39-12.52-6.49-.54,1-25.4-10.6,0-.08-1.67-.61-3.61-1.5-.07.17-22.85-8.3.06-.2-4-1.24-1-.37V53L886,43.57l.36-1.8L783.24,21.36,780.93,33l80.93,16L852.8,94.84a72.73,72.73,0,0,0-5.7-6.66Q854.78,48.05,827,42.56a26.76,26.76,0,0,0-16.78,1.67q-8.57,3.83-10.32,12.64a17.87,17.87,0,0,0,2,12.26q3.25,6,9.22,7.22a21.66,21.66,0,0,0,5.11.07l6.56-10.7a20.75,20.75,0,0,1-3.83-.35q-6.88-1.37-6-5.77a7,7,0,0,1,4.71-5.4,13,13,0,0,1,7.37-.43q7.77,1.53,10.65,8.15,2.6,5.89,1,13.9a23.65,23.65,0,0,1-7,12.86q-6,5.92-13.41,4.46-11.69-2.31-19.69-14.9a57.25,57.25,0,0,1-8.6-24l-9.86,6.94Q781.53,77.63,789.8,89q9.75,13.38,24.41,16.29,11.79,2.33,24.38-6.77a35.41,35.41,0,0,1,7.38,9q3.36,6.19,2.93,11.09L861,121,874.7,51.6l4.08.81-.39,1.27,15.67,4.82q-9,8.28-11.19,15.23-1.79,5.82,0,18.53t0,18.28q-1.95,6.31-14.8,5l-5.24,10.7q12,2.17,18.8.94,10.41-1.92,13.4-11.65,1.94-6.31.75-20t.74-20q1.86-6.06,11-12.93l6.44,2,9.63,3.5-24.14,66.48,12.31,4.47L936,72.6l8,2.92,19.43,8.1Q950.74,90,944.11,95.2q-9.61,7.59-13.49,16.86-7.12,17.09-.91,33.43,2.88,7.5,18.13,13.87a21.64,21.64,0,0,0,9.88,1.4l5-11.91q6.88,1.89,14.71-2.22,6.81-5.1,13.76-10.14,10.58-6.88,14.46-4.87a5.61,5.61,0,0,1,3,4.31,8.7,8.7,0,0,1-.82,5.62l-17.07,33,11.62,6,32.16-62.11,3.93,2-.36.58,9.88,6.15-37.42,60,11.11,6.92,37.42-60,5.53,3.46,6.11,4.16L1031,200l11,7.52,39.68-58.24,8,5.43.36-.52,1.61,1.3q8.64,20.76-1.76,33.78-3,3.83-10.6,6.93c-5.58,2.31-9.5,2.57-11.77.75s-3.87-6-5-12.61l-9,11.26q3.12,9.27,6.85,12.24,7.35,5.87,18,2.71,7.68-3.67,15.47-7.27,11.71-4.69,15.13-2a5.61,5.61,0,0,1,2.1,4.81,8.75,8.75,0,0,1-1.9,5.35l-23.17,29,10.23,8.16L1139.94,194l3.3,2.64-.41.44,18.38,17.31q-14.09,1.45-22.14,4-11.67,3.72-18.56,11-12.69,13.49-12.63,31,.06,8.05,12.09,19.38a21.6,21.6,0,0,0,8.75,4.78l9.79-10.39q-8-1-9.88-2.76-8.91-8.4-7.49-17.4,1.2-7.41,10-16.75,7.69-8.18,22.49-10.06a50.82,50.82,0,0,1,17.13.32l-4.59,4.11a47.16,47.16,0,0,1,8.1,14.22q3.26,8.79,2.11,16l-29.21-13.6-7.28,11.48q18.55,33.44,19.47,55.67l7.94,8.87L1220,277.14ZM984.52,123.52q-2.25,4.35-9,8.86-7.53,5-11.4,3T956.72,124l-6.63,12.8q4.88,8.48,9.11,10.67c.48.25,1,.47,1.46.67-3.76.77-6.32.88-7.66.33q-11.29-4.72-13.13-13.65-1.5-7.35,3.44-19.19,4.34-10.36,17.51-17.34A48.44,48.44,0,0,1,981,92.11Q991.74,109.56,984.52,123.52Zm31.18,2.75a10.26,10.26,0,0,0-5.38-6.66q-4.49-2.33-11.09-.53a35.27,35.27,0,0,0-1.13-19.49l24.78,12.83ZM1120,198a10.23,10.23,0,0,0-4-7.57q-3.95-3.15-10.77-2.69a35.39,35.39,0,0,0,2.69-19.33l21.8,17.4Zm50.41,106a201.24,201.24,0,0,0-9.73-33.87l19.11,8.27,9.06-8.11q3-9.28-1.27-29.38l23.72,26.51Z"/><path class="cls-7" d="M1130.9,291.58a89.75,89.75,0,0,1,7.53,17.92l11.09-2.47a54.44,54.44,0,0,0-8.08-21.52Z"/><path class="cls-7" d="M1300.68,541.09a73.66,73.66,0,0,0,3.18-8.16q39-12.18,30.75-39.24a26.79,26.79,0,0,0-9.39-14q-7.42-5.74-16-3.13a17.93,17.93,0,0,0-9.86,7.57q-3.78,5.72-2,11.53a21.66,21.66,0,0,0,2.35,4.54l12.53.74a22,22,0,0,1-1.5-3.55q-2-6.7,2.26-8a7,7,0,0,1,7,1.6,13,13,0,0,1,3.86,6.29q2.31,7.58-2.16,13.23-4,5.09-11.78,7.47a23.66,23.66,0,0,1-14.63-.1q-8.07-2.52-10.27-9.72-3.48-11.38,3.85-24.4a57.32,57.32,0,0,1,17.08-18.9l-10.77-5.42q-12.92,10.71-19,23.35-7.2,14.91-2.85,29.21,3.51,11.5,17.48,18.3a35.39,35.39,0,0,1-4.46,10.76q-3.88,5.88-8.4,7.82l3.59,11.76L1349.14,540l1.41,4.63-.29,0,10.12,63.45q-11.73-20.45-16.06-27.42-11.58-18.6-19-25.88l-12.91,5.81q1.58,13.27-5.17,32.49t-16.53,27.74l1.81,11.36,70-11.17,1.52,9.53,11.75-1.87-13.22-82.83.8-.25-30.67-100.53-11.38,3.47,24.07,78.91Zm9.44,75a133.3,133.3,0,0,0,14.74-38.51q14.33,21,20.77,32.84Z"/><path class="cls-7" d="M1378.62,661.54l-11.89-.38-2.64,82.46-46.64-1.49a72.12,72.12,0,0,0,5.63-6.7q40.85,1,41.75-27.24a26.7,26.7,0,0,0-4.38-16.28q-5.17-7.83-14.15-8.12a17.81,17.81,0,0,0-11.77,4q-5.43,4.19-5.62,10.27a21.74,21.74,0,0,0,.76,5.05l11.62,4.73A21.41,21.41,0,0,1,1341,704q.23-7,4.72-6.86a7,7,0,0,1,6.09,3.77,13,13,0,0,1,1.63,7.19q-.26,7.93-6.32,11.84-5.39,3.52-13.55,3.27a23.69,23.69,0,0,1-13.82-4.81q-6.82-5-6.59-12.51.39-11.89,11.5-21.86A57.47,57.47,0,0,1,1347,671.64l-8.46-8.6q-15.66,6-25.51,16-11.62,11.79-12.1,26.73-.37,12,10.65,23a35.42,35.42,0,0,1-7.69,8.75q-5.56,4.32-10.47,4.69l-.39,12.29,70.69,2.26-.11,3.69-1.36-.17-1.49,11.53-70.15-9-1.67,13,70.15,9-1.35,10.49,11.8,1.52,3.89-30.22,1.88.06Z"/><path class="cls-7" d="M1345.75,798.42a16.5,16.5,0,0,0-7.6,11q-1.56,7.38,8.67,15.22a19.37,19.37,0,0,1-5.6-.37q-9.57-2-11.7-14.92a59.69,59.69,0,0,1,.74-20.66l-17.47,1.43q-15.51,28.45-34.11,42.9l-2.61,12.28,68.67,14.58-1.23,5.82-.71-.21-3.33,11.14-67.77-20.27L1268,868.85l67.76,20.27-3,10.14,1,.31L1322,929l-30.07-12-12.4,6.43.56,26.71a15.22,15.22,0,0,1-4.42-1.06,21.63,21.63,0,0,1-12-11.93,20.87,20.87,0,0,1-.56-16.74q4.23-10.56,21.12-15.76a95.55,95.55,0,0,1,31-3.83l-5.2-11.91q-31.93-1-50,15.32c-4.15,3.74-6.76,6.93-7.8,9.55q-6.35,15.82-.67,29.06T1273,962.34a53.58,53.58,0,0,0,8.1,2.53l11.34-5.57.84-27.72,23.81,9.53L1301,981.31l-20,34.81L1252.94,1000l-12.65,3.71-3.72,27.44a18,18,0,0,1-4.63-1.75q-7.8-4.47-9.92-13.92a23.25,23.25,0,0,1,2.36-17.25q12.9-22.47,53.67-13.55L1275.69,972q-46.28-7.81-62.07,19.7-8.43,14.67-4.86,28.23t18.25,22a81.55,81.55,0,0,0,8.53,4l12-3.93,4.72-27.33,22.24,12.78-19.2,33.42-1.06-.75-6.73,9.49-57.72-40.89-7.56,10.68,57.71,40.89-6.11,8.63,9.71,6.88,18.57-26.22,1.44.82,49.51-86.21-.32-.19,5-12.59a26.07,26.07,0,0,0,22.66-.76,31.62,31.62,0,0,0,16-17.11q6.72-16.81,3.36-38.67l-10.78.25q-.43,26-2.55,31.3a20.78,20.78,0,0,1-9.41,11q-6.36,3.43-14.09,1l23.53-58.8-1.35-.53,7.86-26.27,1.09.23,5-23.67-64.8-13.76q10.85-9.65,22.43-26a33.66,33.66,0,0,0,5.17,17,22.07,22.07,0,0,0,14.35,10.07q3.87.83,12.7.67,9.9-.19,13.11-1.94l3.08-14.49q-10.46-2.35-14-7.71,1.64-5.19,5.39-4.4a39.39,39.39,0,0,1,5.32,1.67c2.67,1,4.38,1.65,5.14,1.91l3-14.1-11-2.34A17.17,17.17,0,0,0,1345.75,798.42Z"/><path class="cls-7" d="M1198.22,983.5q-2,3.45-2.58,9.8l10,4.85a52.91,52.91,0,0,1,3.57-9.69q2.12-3.66,7.63-6.9l-9.15-6.63Q1202,976.85,1198.22,983.5Z"/><path class="cls-10" d="M831.51,459.66l-54.93-5.57A27.76,27.76,0,0,0,746,481.51L745.56,545a11.91,11.91,0,0,0,20.37,8.46l72.84-73.54A11.91,11.91,0,0,0,831.51,459.66Z"/></g></g></svg>